<svg width="56" height="56" fill="none" xmlns="http://www.w3.org/2000/svg"><rect x="2" y="2" width="52" height="52" rx="6" stroke="#fff" stroke-width="4"/><rect width="56" height="56" rx="12" fill="#E5EFFA"/><path fill-rule="evenodd" clip-rule="evenodd" d="M33.824 17.136h-17.78c-1.225 0-2.044.7805-2.044 1.9495 0 1.1725.8173 1.9513 2.044 1.9513h14.9187l2.8613-3.9025v.0017Zm-5.313 7.8015H16.044c-1.225 0-2.044.7805-2.044 1.9513 0 1.1707.8173 1.9512 2.044 1.9512h9.8105l2.6565-3.9025Zm-5.3147 7.8015H16.044c-1.225 0-2.044.7805-2.044 1.9513 0 1.1707.8173 1.9512 2.044 1.9512h5.11l.203-.5862c.2047-.3903.2048-.9748.4095-1.365l1.4298-1.9513Zm13.0812-11.9c.4095.5863 1.022.9765 1.4297 1.365.6125.392 1.2268.5863 1.841.7823L29.533 37.422l-.6125.5845-3.4755 2.5375c-.2048.1925-.4077 0-.4077-.196l1.0219-4.2927c.203-.3903.2031-.5845.4078-.9748l9.8105-14.238v-.0035Zm2.6565-4.095c1.225-.3902 2.6565.1943 3.066 1.365v.5845c-.4095.7805-.6125 1.365-1.022 1.9513l-1.8393-.5845c-.6125-.3903-1.225-.7805-1.6345-1.561l1.4298-1.7553Z" fill="#0061D5"/></svg>