<svg width="56" height="56" fill="none" xmlns="http://www.w3.org/2000/svg"><rect x="2" y="2" width="52" height="52" rx="6" stroke="#fff" stroke-width="4"/><rect width="56" height="56" rx="12" fill="#E5EFFA"/><path fill-rule="evenodd" clip-rule="evenodd" d="M39.375 40.25c.483 0 .875.392.875.875s-.392.875-.875.875h-22.75c-.483 0-.875-.392-.875-.875s.392-.875.875-.875h22.75Zm-12.74-23.8438c.7-.875 2.03-.875 2.73 0l7 8.75C37.2855 26.3025 36.47 28 35 28h-3.5088l-.0157 7.0035c-.0017.966-.784 1.7465-1.75 1.7465H26.25c-.966 0-1.75-.784-1.75-1.75v-.0035L24.514 28H21c-1.4 0-2.2085-1.547-1.4805-2.6845l.1138-.1575 7.0017-8.7518Z" fill="#0061D5"/></svg>