<svg width="57" height="57" fill="none" xmlns="http://www.w3.org/2000/svg"><rect x=".115234" y=".412109" width="56" height="56" rx="12" fill="#ECE9F8"/><path d="M36.1575 26.6934c1.4592-2.089 1.9162-3.9077 1.2527-4.8461l.0012-.0012c-.5406-.7644-1.8779-1.023-3.6816-.7284-.1728-.5858-.3688-1.1425-.5846-1.6668 2.684-.5057 4.6988-.0162 5.6917 1.3884 1.0277 1.4546.7632 3.6143-.7447 6.0803-.2308.3758-.4883.7539-.7667 1.1321-.3595-.4547-.7481-.9094-1.168-1.3583Z" fill="#2486FC"/><path d="M36.1575 26.6934c1.4592-2.089 1.9162-3.9077 1.2527-4.8461l.0012-.0012c-.5406-.7644-1.8779-1.023-3.6816-.7284-.1728-.5858-.3688-1.1425-.5846-1.6668 2.684-.5057 4.6988-.0162 5.6917 1.3884 1.0277 1.4546.7632 3.6143-.7447 6.0803-.2308.3758-.4883.7539-.7667 1.1321-.3595-.4547-.7481-.9094-1.168-1.3583Z" fill="url(#a)" fill-opacity=".2"/><path d="M31.2047 21.7974c-.2378.0859-.4791.1775-.7238.2772-.6229-.3874-1.2493-.7458-1.8756-1.0717.6751-.3213 1.3443-.6032 2.002-.841.0313.0708.0626.1416.0928.2146.1867.4431.3538.9198.5046 1.4209Z" fill="#2486FC"/><path d="M31.2047 21.7974c-.2378.0859-.4791.1775-.7238.2772-.6229-.3874-1.2493-.7458-1.8756-1.0717.6751-.3213 1.3443-.6032 2.002-.841.0313.0708.0626.1416.0928.2146.1867.4431.3538.9198.5046 1.4209Z" fill="url(#b)" fill-opacity=".2"/><path d="M25.5721 24.8109c.7064-.4988 1.407-.9465 2.096-1.3444-.631-.3398-1.2585-.6414-1.8756-.9012-.3862.2447-.7702.5011-1.1518.7678-.1624.7795-.2865 1.603-.37 2.4567.4141-.3294.8468-.6565 1.3026-.9789h-.0012Z" fill="#2486FC"/><path d="M25.5721 24.8109c.7064-.4988 1.407-.9465 2.096-1.3444-.631-.3398-1.2585-.6414-1.8756-.9012-.3862.2447-.7702.5011-1.1518.7678-.1624.7795-.2865 1.603-.37 2.4567.4141-.3294.8468-.6565 1.3026-.9789h-.0012Z" fill="url(#c)" fill-opacity=".2"/><path d="M34.4814 28.7325c.0743.0824.1473.1659.2192.2483h.0012c.3225.37.6206.74.892 1.11-.3213.3329-.6554.6623-1.0068.9882-.1566.1462-.3167.2912-.4802.435-.6264.5521-1.2945 1.0892-1.9951 1.6042l-.0993.072c-.1143.083-.2289.1663-.3449.2481-.0128.0087-.0253.0174-.0377.0261-.0125.0087-.025.0174-.0377.0261-.3816.2668-.7656.5231-1.1518.7679-.1508.0951-.3004.189-.4512.2807-.6229.3793-1.2493.7272-1.8733 1.0416-.1635.0823-.3271.1624-.4895.2401-.675.3213-1.3443.6031-2.002.8409-.1392.0499-.2772.0986-.4141.145-.5753.1937-1.1402.3526-1.6888.4744-.0244.0052-.049.011-.0737.0168-.0246.0058-.0493.0116-.0736.0168l-.0268.0055c-.0872.0179-.1734.0356-.2597.0514-2.684.5057-4.6988.0162-5.6917-1.3884-1.0277-1.4546-.7632-3.6143.7447-6.0803.2308-.3758.4883-.7539.7667-1.1321.0881-.1194.1797-.2401.2725-.3596.3538-.4546.7389-.9082 1.1553-1.3571.0986-.1067.2007-.2145.3039-.3212.3213-.3329.6554-.6624 1.0068-.9883-.0626.6867-.1009 1.3873-.1148 2.0983-.0023.1635-.0047.3271-.0047.4906-.0079.0087-.0158.0172-.0236.0257-.0164.0177-.0326.0352-.0483.0532-.4164.4593-.7899.9129-1.1193 1.3571-.0905.1218-.1775.2424-.261.3619-1.4591 2.089-1.9161 3.9077-1.2527 4.8461.5405.7644 1.8779 1.0231 3.6816.7284.1403-.0232.2853-.0498.4315-.08.5277-.1067 1.0891-.2586 1.6795-.4558.1357-.0453.2738-.094.413-.1439.2377-.0858.479-.1774.7238-.2772.1623-.0661.3259-.1357.4918-.2088.6078-.2656 1.2341-.5753 1.8732-.9279.1485-.0824.2981-.167.4477-.254.689-.3979 1.3896-.8456 2.096-1.3444.4559-.3224.8885-.6495 1.3026-.9789.1601-.1288.319-.2575.4732-.3863.6716-.5614 1.2817-1.1274 1.8292-1.69.0731-.0754.1462-.1508.2169-.2262Z" fill="#2486FC"/><path d="M34.4814 28.7325c.0743.0824.1473.1659.2192.2483h.0012c.3225.37.6206.74.892 1.11-.3213.3329-.6554.6623-1.0068.9882-.1566.1462-.3167.2912-.4802.435-.6264.5521-1.2945 1.0892-1.9951 1.6042l-.0993.072c-.1143.083-.2289.1663-.3449.2481-.0128.0087-.0253.0174-.0377.0261-.0125.0087-.025.0174-.0377.0261-.3816.2668-.7656.5231-1.1518.7679-.1508.0951-.3004.189-.4512.2807-.6229.3793-1.2493.7272-1.8733 1.0416-.1635.0823-.3271.1624-.4895.2401-.675.3213-1.3443.6031-2.002.8409-.1392.0499-.2772.0986-.4141.145-.5753.1937-1.1402.3526-1.6888.4744-.0244.0052-.049.011-.0737.0168-.0246.0058-.0493.0116-.0736.0168l-.0268.0055c-.0872.0179-.1734.0356-.2597.0514-2.684.5057-4.6988.0162-5.6917-1.3884-1.0277-1.4546-.7632-3.6143.7447-6.0803.2308-.3758.4883-.7539.7667-1.1321.0881-.1194.1797-.2401.2725-.3596.3538-.4546.7389-.9082 1.1553-1.3571.0986-.1067.2007-.2145.3039-.3212.3213-.3329.6554-.6624 1.0068-.9883-.0626.6867-.1009 1.3873-.1148 2.0983-.0023.1635-.0047.3271-.0047.4906-.0079.0087-.0158.0172-.0236.0257-.0164.0177-.0326.0352-.0483.0532-.4164.4593-.7899.9129-1.1193 1.3571-.0905.1218-.1775.2424-.261.3619-1.4591 2.089-1.9161 3.9077-1.2527 4.8461.5405.7644 1.8779 1.0231 3.6816.7284.1403-.0232.2853-.0498.4315-.08.5277-.1067 1.0891-.2586 1.6795-.4558.1357-.0453.2738-.094.413-.1439.2377-.0858.479-.1774.7238-.2772.1623-.0661.3259-.1357.4918-.2088.6078-.2656 1.2341-.5753 1.8732-.9279.1485-.0824.2981-.167.4477-.254.689-.3979 1.3896-.8456 2.096-1.3444.4559-.3224.8885-.6495 1.3026-.9789.1601-.1288.319-.2575.4732-.3863.6716-.5614 1.2817-1.1274 1.8292-1.69.0731-.0754.1462-.1508.2169-.2262Z" fill="url(#d)" fill-opacity=".2"/><path d="M33.4181 21.6191c-.0395-.1415-.0789-.2819-.1207-.4211-.1739-.5822-.37-1.1355-.588-1.6552-.0099-.0232-.0195-.0466-.029-.0701-.0096-.0235-.0192-.047-.029-.0702-.0395-.0905-.0789-.1798-.1195-.268-1.1344-2.4833-2.6956-3.8474-4.4158-3.8474-1.7201 0-3.2825 1.3641-4.4181 3.8486-.0406.0882-.08.1763-.1195.2679-.0108.0249-.0213.0509-.0319.0769-.0086.0213-.0172.0426-.0261.0635-.2169.5196-.4141 1.0729-.588 1.6552-.0418.138-.0812.2784-.1207.421-.2621.9535-.4674 1.9765-.6101 3.0471-.0278.2135-.0545.4269-.0777.6438-.0905.8305-.1438 1.6853-.1589 2.5553l-.0001.0034c-.0023.1508-.0046.3005-.0046.4524l.0012.0013v.1807l-.0012.0013c0 .1519.0024.3039.0047.4558.0162.8699.0696 1.726.1589 2.5553.0232.2169.0499.4303.0777.6438.1427 1.0717.348 2.0936.6101 3.0471.0766-.0151.152-.0302.2297-.0476.4698-.1044.9546-.2413 1.4499-.4071-.0882-.3213-.1705-.6565-.2459-1.0022-.0453-.2053-.087-.4164-.1265-.6298-.1438-.7725-.254-1.5984-.3247-2.4706-.0163-.2007-.0302-.4037-.0418-.609-.0301-.5278-.0475-1.0706-.0475-1.6274 0-.5567.0162-1.0995.0475-1.6273.0116-.2053.0255-.4083.0418-.609.0707-.8722.1809-1.6981.3247-2.4706.0395-.2146.0824-.4245.1265-.6298.0754-.3468.1577-.6809.2459-1.0022.0394-.1426.0789-.2818.1206-.4187.1798-.5962.3805-1.1437.5974-1.6366.0603-.1369.1218-.2703.1844-.3991.8003-1.6436 1.7839-2.5854 2.72-2.5854.936 0 1.9196.9418 2.72 2.5854.0626.1288.1241.261.1844.3991.2169.4929.4176 1.0404.5974 1.6366.0417.1369.0812.2772.1206.4187.0882.3213.1705.6565.2459 1.0022.7157.508 1.3989 1.0404 2.0438 1.5902-.1427-1.0717-.348-2.0936-.6101-3.0471l.0023-.0011Z" fill="#FF00DB"/><path d="M33.4181 21.6191c-.0395-.1415-.0789-.2819-.1207-.4211-.1739-.5822-.37-1.1355-.588-1.6552-.0099-.0232-.0195-.0466-.029-.0701-.0096-.0235-.0192-.047-.029-.0702-.0395-.0905-.0789-.1798-.1195-.268-1.1344-2.4833-2.6956-3.8474-4.4158-3.8474-1.7201 0-3.2825 1.3641-4.4181 3.8486-.0406.0882-.08.1763-.1195.2679-.0108.0249-.0213.0509-.0319.0769-.0086.0213-.0172.0426-.0261.0635-.2169.5196-.4141 1.0729-.588 1.6552-.0418.138-.0812.2784-.1207.421-.2621.9535-.4674 1.9765-.6101 3.0471-.0278.2135-.0545.4269-.0777.6438-.0905.8305-.1438 1.6853-.1589 2.5553l-.0001.0034c-.0023.1508-.0046.3005-.0046.4524l.0012.0013v.1807l-.0012.0013c0 .1519.0024.3039.0047.4558.0162.8699.0696 1.726.1589 2.5553.0232.2169.0499.4303.0777.6438.1427 1.0717.348 2.0936.6101 3.0471.0766-.0151.152-.0302.2297-.0476.4698-.1044.9546-.2413 1.4499-.4071-.0882-.3213-.1705-.6565-.2459-1.0022-.0453-.2053-.087-.4164-.1265-.6298-.1438-.7725-.254-1.5984-.3247-2.4706-.0163-.2007-.0302-.4037-.0418-.609-.0301-.5278-.0475-1.0706-.0475-1.6274 0-.5567.0162-1.0995.0475-1.6273.0116-.2053.0255-.4083.0418-.609.0707-.8722.1809-1.6981.3247-2.4706.0395-.2146.0824-.4245.1265-.6298.0754-.3468.1577-.6809.2459-1.0022.0394-.1426.0789-.2818.1206-.4187.1798-.5962.3805-1.1437.5974-1.6366.0603-.1369.1218-.2703.1844-.3991.8003-1.6436 1.7839-2.5854 2.72-2.5854.936 0 1.9196.9418 2.72 2.5854.0626.1288.1241.261.1844.3991.2169.4929.4176 1.0404.5974 1.6366.0417.1369.0812.2772.1206.4187.0882.3213.1705.6565.2459 1.0022.7157.508 1.3989 1.0404 2.0438 1.5902-.1427-1.0717-.348-2.0936-.6101-3.0471l.0023-.0011Z" fill="url(#e)" fill-opacity=".2"/><path d="M32.4785 30.04c.6148-.5312 1.1866-1.0764 1.7074-1.6273-.5196-.551-1.0914-1.0961-1.7074-1.6274.0302.5278.0464 1.0706.0464 1.6274 0 .5567-.0162 1.0996-.0475 1.6273h.0011Z" fill="#FF00DB"/><path d="M32.4785 30.04c.6148-.5312 1.1866-1.0764 1.7074-1.6273-.5196-.551-1.0914-1.0961-1.7074-1.6274.0302.5278.0464 1.0706.0464 1.6274 0 .5567-.0162 1.0996-.0475 1.6273h.0011Z" fill="url(#f)" fill-opacity=".2"/><path d="M31.9844 33.7495c-.0754.3468-.1577.6808-.2459 1.0021.4953.1659.9813.3039 1.4499.4072.0459.0102.091.0193.136.0283.0311.0063.0624.0126.0937.0192.2621-.9534.4674-1.9765.6101-3.0471-.6449.5498-1.3281 1.0822-2.0438 1.5903Z" fill="#FF00DB"/><path d="M31.9844 33.7495c-.0754.3468-.1577.6808-.2459 1.0021.4953.1659.9813.3039 1.4499.4072.0459.0102.091.0193.136.0283.0311.0063.0624.0126.0937.0192.2621-.9534.4674-1.9765.6101-3.0471-.6449.5498-1.3281 1.0822-2.0438 1.5903Z" fill="url(#g)" fill-opacity=".2"/><path d="M25.3961 37.206c.8003 1.6436 1.784 2.5854 2.72 2.5854h.0023c.9361 0 1.9197-.9418 2.72-2.5854.5777.196 1.1449.3561 1.697.4825-1.1356 2.4846-2.6968 3.8486-4.4181 3.8486-1.7213 0-3.2826-1.364-4.4181-3.8486.5521-.1253 1.1193-.2865 1.6969-.4825Z" fill="#FF00DB"/><path d="M25.3961 37.206c.8003 1.6436 1.784 2.5854 2.72 2.5854h.0023c.9361 0 1.9197-.9418 2.72-2.5854.5777.196 1.1449.3561 1.697.4825-1.1356 2.4846-2.6968 3.8486-4.4181 3.8486-1.7213 0-3.2826-1.364-4.4181-3.8486.5521-.1253 1.1193-.2865 1.6969-.4825Z" fill="url(#h)" fill-opacity=".2"/><path d="M22.502 21.1189c-1.8036-.2947-3.1422-.036-3.6815.7284l.0011.0011c-.6635.9384-.2065 2.756 1.2527 4.8462-.4199.4488-.8096.9024-1.168 1.3582-.2796-.3781-.5371-.7562-.7667-1.1321-1.5079-2.4659-1.7724-4.6257-.7447-6.0802.9917-1.4058 3.0077-1.8942 5.6917-1.3884-.2157.5242-.4118 1.081-.5846 1.6668Z" fill="#9F3FED"/><path d="M22.502 21.1189c-1.8036-.2947-3.1422-.036-3.6815.7284l.0011.0011c-.6635.9384-.2065 2.756 1.2527 4.8462-.4199.4488-.8096.9024-1.168 1.3582-.2796-.3781-.5371-.7562-.7667-1.1321-1.5079-2.4659-1.7724-4.6257-.7447-6.0802.9917-1.4058 3.0077-1.8942 5.6917-1.3884-.2157.5242-.4118 1.081-.5846 1.6668Z" fill="url(#i)" fill-opacity=".2"/><path d="M24.2697 31.035c.4141.3294.8468.6576 1.3026.9789h-.0012c.7064.4988 1.4082.9465 2.096 1.3444-.631.3387-1.2585.6402-1.8756.9012-.3862-.2447-.7702-.4999-1.1518-.7678-.1624-.7795-.2865-1.603-.37-2.4567Z" fill="#9F3FED"/><path d="M24.2697 31.035c.4141.3294.8468.6576 1.3026.9789h-.0012c.7064.4988 1.4082.9465 2.096 1.3444-.631.3387-1.2585.6402-1.8756.9012-.3862-.2447-.7702-.4999-1.1518-.7678-.1624-.7795-.2865-1.603-.37-2.4567Z" fill="url(#j)" fill-opacity=".2"/><path d="M21.6448 31.079c-.0626-.6866-.1009-1.3872-.1148-2.0983-.3225.3701-.6206.7401-.892 1.1101.3202.3329.6554.6635 1.0068.9882Z" fill="#9F3FED"/><path d="M21.6448 31.079c-.0626-.6866-.1009-1.3872-.1148-2.0983-.3225.3701-.6206.7401-.892 1.1101.3202.3329.6554.6635 1.0068.9882Z" fill="url(#k)" fill-opacity=".2"/><path d="M37.3246 28.772c.2795.3781.537.7562.7667 1.132v-.0011c1.5078 2.466 1.7723 4.6257.7446 6.0803-.9917 1.4058-3.0076 1.8941-5.6917 1.3884-.0939-.0174-.1902-.036-.2865-.0569-.0243-.0052-.049-.011-.0736-.0168-.0247-.0058-.0493-.0116-.0737-.0168-.5486-.1218-1.1135-.2807-1.6888-.4744-.138-.0464-.2761-.0951-.4141-.145-.6577-.2378-1.3269-.5185-2.002-.8409.6263-.3248 1.2527-.6844 1.8756-1.0718.2459.0998.486.1914.7238.2772.1391.0499.276.0986.4129.1439.5904.1971 1.1518.3479 1.6795.4558.1462.0302.29.0568.4315.08 1.8037.2947 3.1422.036 3.6816-.7284.6635-.9384.2065-2.7559-1.2527-4.8461-.0835-.1206-.1705-.2401-.261-.3619-.3294-.4443-.7029-.8978-1.1193-1.3571l-.0719-.0789c-.0743-.0812-.1485-.1612-.2251-.2424-.0707-.0754-.1437-.1507-.2168-.2261-.5475-.5626-1.1576-1.1287-1.8292-1.6889-.1543-.1288-.3121-.2575-.4733-.3863-.4141-.3294-.8467-.6576-1.3026-.9789-.7064-.4988-1.4081-.9465-2.0959-1.3444-.1497-.087-.2993-.1716-.4478-.254-.6402-.3526-1.2666-.6611-1.8732-.9279-.1647-.0719-.3294-.1427-.4918-.2088-.2459-.0998-.486-.1914-.7238-.2772.1508-.5011.319-.9767.5046-1.4209.0301-.0731.0614-.1439.0927-.2146.6577.2378 1.327.5185 2.0021.8409.1635.0777.3259.1578.4894.2401.6241.3155 1.2504.6623 1.8733 1.0416.1508.0917.3016.1856.4512.2807.3863.2448.7702.5 1.1518.7679.0128.0087.0252.0174.0377.0261.0125.0087.0249.0174.0377.0261.1496.1055.2969.2123.4442.3201.7018.515 1.3687 1.0521 1.9951 1.6042.1624.1438.3225.2888.4802.435.3515.3247.6867.6553 1.0068.9882.1021.1067.2042.2135.3039.3213.4164.4489.8015.9024 1.1553 1.3571.0928.1195.1844.2401.2726.3596Z" fill="#9F3FED"/><path d="M37.3246 28.772c.2795.3781.537.7562.7667 1.132v-.0011c1.5078 2.466 1.7723 4.6257.7446 6.0803-.9917 1.4058-3.0076 1.8941-5.6917 1.3884-.0939-.0174-.1902-.036-.2865-.0569-.0243-.0052-.049-.011-.0736-.0168-.0247-.0058-.0493-.0116-.0737-.0168-.5486-.1218-1.1135-.2807-1.6888-.4744-.138-.0464-.2761-.0951-.4141-.145-.6577-.2378-1.3269-.5185-2.002-.8409.6263-.3248 1.2527-.6844 1.8756-1.0718.2459.0998.486.1914.7238.2772.1391.0499.276.0986.4129.1439.5904.1971 1.1518.3479 1.6795.4558.1462.0302.29.0568.4315.08 1.8037.2947 3.1422.036 3.6816-.7284.6635-.9384.2065-2.7559-1.2527-4.8461-.0835-.1206-.1705-.2401-.261-.3619-.3294-.4443-.7029-.8978-1.1193-1.3571l-.0719-.0789c-.0743-.0812-.1485-.1612-.2251-.2424-.0707-.0754-.1437-.1507-.2168-.2261-.5475-.5626-1.1576-1.1287-1.8292-1.6889-.1543-.1288-.3121-.2575-.4733-.3863-.4141-.3294-.8467-.6576-1.3026-.9789-.7064-.4988-1.4081-.9465-2.0959-1.3444-.1497-.087-.2993-.1716-.4478-.254-.6402-.3526-1.2666-.6611-1.8732-.9279-.1647-.0719-.3294-.1427-.4918-.2088-.2459-.0998-.486-.1914-.7238-.2772.1508-.5011.319-.9767.5046-1.4209.0301-.0731.0614-.1439.0927-.2146.6577.2378 1.327.5185 2.0021.8409.1635.0777.3259.1578.4894.2401.6241.3155 1.2504.6623 1.8733 1.0416.1508.0917.3016.1856.4512.2807.3863.2448.7702.5 1.1518.7679.0128.0087.0252.0174.0377.0261.0125.0087.0249.0174.0377.0261.1496.1055.2969.2123.4442.3201.7018.515 1.3687 1.0521 1.9951 1.6042.1624.1438.3225.2888.4802.435.3515.3247.6867.6553 1.0068.9882.1021.1067.2042.2135.3039.3213.4164.4489.8015.9024 1.1553 1.3571.0928.1195.1844.2401.2726.3596Z" fill="url(#l)" fill-opacity=".2"/><defs><linearGradient id="a" x1="16.7798" y1="36.6859" x2="40.7321" y2="23.2079" gradientUnits="userSpaceOnUse"><stop/><stop offset="1" stop-opacity="0"/></linearGradient><linearGradient id="b" x1="16.7798" y1="36.6859" x2="40.7321" y2="23.2079" gradientUnits="userSpaceOnUse"><stop/><stop offset="1" stop-opacity="0"/></linearGradient><linearGradient id="c" x1="16.7798" y1="36.6859" x2="40.7321" y2="23.2079" gradientUnits="userSpaceOnUse"><stop/><stop offset="1" stop-opacity="0"/></linearGradient><linearGradient id="d" x1="16.7798" y1="36.6859" x2="40.7321" y2="23.2079" gradientUnits="userSpaceOnUse"><stop/><stop offset="1" stop-opacity="0"/></linearGradient><linearGradient id="e" x1="28.0732" y1="15.2871" x2="28.0732" y2="41.5371" gradientUnits="userSpaceOnUse"><stop stop-opacity="0"/><stop offset="1"/></linearGradient><linearGradient id="f" x1="28.0732" y1="15.2871" x2="28.0732" y2="41.5371" gradientUnits="userSpaceOnUse"><stop stop-opacity="0"/><stop offset="1"/></linearGradient><linearGradient id="g" x1="28.0732" y1="15.2871" x2="28.0732" y2="41.5371" gradientUnits="userSpaceOnUse"><stop stop-opacity="0"/><stop offset="1"/></linearGradient><linearGradient id="h" x1="28.0732" y1="15.2871" x2="28.0732" y2="41.5371" gradientUnits="userSpaceOnUse"><stop stop-opacity="0"/><stop offset="1"/></linearGradient><linearGradient id="i" x1="39.452" y1="35.3141" x2="15.681" y2="23.3492" gradientUnits="userSpaceOnUse"><stop/><stop offset="1" stop-opacity="0"/></linearGradient><linearGradient id="j" x1="39.452" y1="35.3141" x2="15.681" y2="23.3492" gradientUnits="userSpaceOnUse"><stop/><stop offset="1" stop-opacity="0"/></linearGradient><linearGradient id="k" x1="39.452" y1="35.3141" x2="15.681" y2="23.3492" gradientUnits="userSpaceOnUse"><stop/><stop offset="1" stop-opacity="0"/></linearGradient><linearGradient id="l" x1="39.452" y1="35.3141" x2="15.681" y2="23.3492" gradientUnits="userSpaceOnUse"><stop/><stop offset="1" stop-opacity="0"/></linearGradient></defs></svg>