<svg width="56" height="56" fill="none" xmlns="http://www.w3.org/2000/svg"><rect x="2" y="2" width="52" height="52" rx="6" stroke="#fff" stroke-width="4"/><rect width="56" height="56" rx="12" fill="#E5EFFA"/><path d="M22.75 14.875c0-.4832.3918-.875.875-.875h8.75c.4832 0 .875.3918.875.875s-.3918.875-.875.875h-8.75c-.4832 0-.875-.3918-.875-.875ZM19.25 18.375c0-.4832.3918-.875.875-.875h15.75c.4832 0 .875.3918.875.875s-.3918.875-.875.875h-15.75c-.4832 0-.875-.3918-.875-.875Z" fill="#0061D5"/><path fill-rule="evenodd" clip-rule="evenodd" d="M15.75 24.5c0-1.933 1.567-3.5 3.5-3.5h17.5c1.933 0 3.5 1.567 3.5 3.5v12.25c0 1.933-1.567 3.5-3.5 3.5h-17.5c-1.933 0-3.5-1.567-3.5-3.5V24.5Zm10.2065 1.6543c-.3842-.5763-1.0722-.8718-1.7548-.7536-.6825.1183-1.231.6279-1.399 1.2999l-1.75 7c-.2344.9377.3356 1.8878 1.2733 2.1222.9376.2344 1.8878-.3357 2.1222-1.2733l.7905-3.1621 1.3056 1.9584c.3246.4868.871.7793 1.4561.7793s1.1315-.2925 1.4561-.7793l1.3056-1.9584.7906 3.1621c.2344.9376 1.1845 1.5077 2.1222 1.2733.9376-.2344 1.5077-1.1845 1.2733-2.1222l-1.75-7c-.168-.672-.7166-1.1816-1.3991-1.2999-.6825-.1182-1.3705.1773-1.7548.7536l-2.0439 3.0659-2.0439-3.0659Z" fill="#0061D5"/></svg>
